<svg width="1440" height="788" viewBox="0 0 1440 788" fill="none" xmlns="http://www.w3.org/2000/svg">
  <g clip-path="url(#clip0_1474_3268)">
    <rect width="1440" height="788" fill="#F3F3F7" />
    <line x1="0.5" y1="2.18557e-08" x2="0.499941" y2="1340" stroke="white" />
    <line x1="30.5" y1="2.18557e-08" x2="30.4999" y2="1340" stroke="white" />
    <line x1="60.5" y1="2.18557e-08" x2="60.4999" y2="1340" stroke="white" />
    <line x1="90.5" y1="2.18557e-08" x2="90.4999" y2="1340" stroke="white" />
    <line x1="120.5" y1="2.18557e-08" x2="120.5" y2="1340" stroke="white" />
    <line x1="150.501" y1="2.18557e-08" x2="150.501" y2="1340" stroke="white" />
    <line x1="180.501" y1="2.18557e-08" x2="180.501" y2="1340" stroke="white" />
    <line x1="210.501" y1="2.18557e-08" x2="210.501" y2="1340" stroke="white" />
    <line x1="240.501" y1="2.18557e-08" x2="240.501" y2="1340" stroke="white" />
    <line x1="270.501" y1="2.18557e-08" x2="270.501" y2="1340" stroke="white" />
    <line x1="300.501" y1="2.18557e-08" x2="300.501" y2="1340" stroke="white" />
    <line x1="330.501" y1="2.18557e-08" x2="330.501" y2="1340" stroke="white" />
    <line x1="360.501" y1="2.18557e-08" x2="360.501" y2="1340" stroke="white" />
    <line x1="390.501" y1="2.18557e-08" x2="390.501" y2="1340" stroke="white" />
    <line x1="420.501" y1="2.18557e-08" x2="420.501" y2="1340" stroke="white" />
    <line x1="450.501" y1="2.18557e-08" x2="450.501" y2="1340" stroke="white" />
    <line x1="480.501" y1="2.18557e-08" x2="480.501" y2="1340" stroke="white" />
    <line x1="510.502" y1="2.18557e-08" x2="510.502" y2="1340" stroke="white" />
    <line x1="540.501" y1="2.18557e-08" x2="540.501" y2="1340" stroke="white" />
    <line x1="570.501" y1="2.18557e-08" x2="570.501" y2="1340" stroke="white" />
    <line x1="600.501" y1="2.18557e-08" x2="600.501" y2="1340" stroke="white" />
    <line x1="630.502" y1="2.18557e-08" x2="630.502" y2="1340" stroke="white" />
    <line x1="660.502" y1="2.18557e-08" x2="660.502" y2="1340" stroke="white" />
    <line x1="690.502" y1="2.18557e-08" x2="690.502" y2="1340" stroke="white" />
    <line x1="720.502" y1="2.18557e-08" x2="720.502" y2="1340" stroke="white" />
    <line x1="750.502" y1="2.18557e-08" x2="750.502" y2="1340" stroke="white" />
    <line x1="780.502" y1="2.18557e-08" x2="780.502" y2="1340" stroke="white" />
    <line x1="810.502" y1="2.18557e-08" x2="810.502" y2="1340" stroke="white" />
    <line x1="840.502" y1="2.18557e-08" x2="840.502" y2="1340" stroke="white" />
    <line x1="870.502" y1="2.18557e-08" x2="870.502" y2="1340" stroke="white" />
    <line x1="900.502" y1="2.18557e-08" x2="900.502" y2="1340" stroke="white" />
    <line x1="930.502" y1="2.18557e-08" x2="930.502" y2="1340" stroke="white" />
    <line x1="960.502" y1="2.18557e-08" x2="960.502" y2="1340" stroke="white" />
    <line x1="990.502" y1="2.18557e-08" x2="990.502" y2="1340" stroke="white" />
    <line x1="1020.5" y1="2.18557e-08" x2="1020.5" y2="1340" stroke="white" />
    <line x1="1050.5" y1="2.18557e-08" x2="1050.5" y2="1340" stroke="white" />
    <line x1="1080.5" y1="2.18557e-08" x2="1080.5" y2="1340" stroke="white" />
    <line x1="1110.5" y1="2.18557e-08" x2="1110.5" y2="1340" stroke="white" />
    <line x1="1140.5" y1="2.18557e-08" x2="1140.5" y2="1340" stroke="white" />
    <line x1="1170.5" y1="2.18557e-08" x2="1170.5" y2="1340" stroke="white" />
    <line x1="1200.5" y1="2.18557e-08" x2="1200.5" y2="1340" stroke="white" />
    <line x1="1230.5" y1="2.18557e-08" x2="1230.5" y2="1340" stroke="white" />
    <line x1="1260.5" y1="2.18557e-08" x2="1260.5" y2="1340" stroke="white" />
    <line x1="1290.5" y1="2.18557e-08" x2="1290.5" y2="1340" stroke="white" />
    <line x1="1320.5" y1="2.18557e-08" x2="1320.5" y2="1340" stroke="white" />
    <line x1="1350.5" y1="2.18557e-08" x2="1350.5" y2="1340" stroke="white" />
    <line x1="1380.5" y1="2.18557e-08" x2="1380.5" y2="1340" stroke="white" />
    <line x1="1410.5" y1="2.18557e-08" x2="1410.5" y2="1340" stroke="white" />
    <line x1="1440" y1="0.500061" x2="-4.37115e-08" y2="0.499935" stroke="white" />
    <line x1="1440" y1="30.5001" x2="-4.37115e-08" y2="30.5" stroke="white" />
    <line x1="1440" y1="60.5002" x2="-4.37115e-08" y2="60.5001" stroke="white" />
    <line x1="1440" y1="90.5002" x2="-4.37115e-08" y2="90.5001" stroke="white" />
    <line x1="1440" y1="120.5" x2="-4.40375e-08" y2="120.5" stroke="white" />
    <line x1="1440" y1="150.5" x2="-4.40375e-08" y2="150.5" stroke="white" />
    <line x1="1440" y1="180.5" x2="-4.40375e-08" y2="180.5" stroke="white" />
    <line x1="1440" y1="210.5" x2="-4.40375e-08" y2="210.5" stroke="white" />
    <line x1="1440" y1="240.5" x2="-4.40375e-08" y2="240.5" stroke="white" />
    <line x1="1440" y1="270.5" x2="-4.40375e-08" y2="270.5" stroke="white" />
    <line x1="1440" y1="300.5" x2="-4.40375e-08" y2="300.5" stroke="white" />
    <line x1="1440" y1="330.5" x2="-4.40375e-08" y2="330.5" stroke="white" />
    <line x1="1440" y1="360.5" x2="-4.40375e-08" y2="360.5" stroke="white" />
    <line x1="1440" y1="390.5" x2="-4.40375e-08" y2="390.5" stroke="white" />
    <line x1="1440" y1="420.5" x2="-4.40375e-08" y2="420.5" stroke="white" />
    <line x1="1440" y1="450.5" x2="-4.40375e-08" y2="450.5" stroke="white" />
    <line x1="1440" y1="480.5" x2="-4.40375e-08" y2="480.5" stroke="white" />
    <line x1="1440" y1="510.5" x2="-4.40375e-08" y2="510.5" stroke="white" />
    <line x1="1440" y1="540.5" x2="-4.40375e-08" y2="540.5" stroke="white" />
    <line x1="1440" y1="570.5" x2="-4.40375e-08" y2="570.5" stroke="white" />
    <line x1="1440" y1="600.5" x2="-4.40375e-08" y2="600.5" stroke="white" />
    <line x1="1440" y1="630.5" x2="-4.40375e-08" y2="630.5" stroke="white" />
    <line x1="1440" y1="660.5" x2="-4.40375e-08" y2="660.5" stroke="white" />
    <line x1="1440" y1="690.5" x2="-4.40375e-08" y2="690.5" stroke="white" />
    <line x1="1440" y1="720.5" x2="-4.40375e-08" y2="720.5" stroke="white" />
    <line x1="1440" y1="750.5" x2="-4.40375e-08" y2="750.5" stroke="white" />
    <line x1="1440" y1="780.5" x2="-4.40375e-08" y2="780.5" stroke="white" />
  </g>
  <defs>
    <clipPath id="clip0_1474_3268">
      <rect width="1440" height="788" fill="white" />
    </clipPath>
  </defs>
</svg>
