<svg width="64" height="64" viewBox="0 0 64 64" fill="none" xmlns="http://www.w3.org/2000/svg">
<path d="M37.8555 42.0509L11.0381 56.0306L11.0381 16.0384L31.8997 4.96942L37.8555 10.593V42.0509Z" fill="#CED0D6"/>
<path d="M31.8997 4.96942L11.0381 16.0384L11.0381 56.0306L37.8555 42.0509V10.593M31.8997 4.96942L37.8555 10.593M31.8997 4.96942V13.5625L37.8555 10.593" stroke="#0C1231" stroke-width="0.8" stroke-miterlimit="10" stroke-linecap="round"/>
<path d="M40.78 45.6115L15.0381 59.0306L15.0381 19.0384L35.8997 7.96942L41.8555 13.593V43.838C41.8555 44.5834 41.4409 45.267 40.78 45.6115Z" fill="white"/>
<path d="M35.8997 7.96942L15.0381 19.0384L15.0381 59.0306L40.78 45.6115C41.4409 45.267 41.8555 44.5834 41.8555 43.838V13.593M35.8997 7.96942L41.8555 13.593M35.8997 7.96942V16.5625L41.8555 13.593" stroke="black" stroke-width="0.8" stroke-linejoin="round"/>
<path d="M22.9092 23.0623C22.7773 23.1313 22.6948 23.2678 22.6948 23.4166V25.6793C22.6948 25.8296 22.8544 25.9262 22.9876 25.8565L33.9845 20.0961C34.1163 20.027 34.1989 19.8905 34.1989 19.7417V17.479C34.1989 17.3287 34.0392 17.2321 33.906 17.3019L22.9092 23.0623Z" fill="#CED0D6"/>
<path d="M20.3513 32.2411C20.2191 32.31 20.1361 32.4467 20.1361 32.5958V34.8587C20.1361 35.0089 20.2954 35.1055 20.4286 35.0361L37.8968 25.9328C38.029 25.8639 38.1119 25.7272 38.1119 25.5781V23.3152C38.1119 23.165 37.9527 23.0684 37.8195 23.1378L20.3513 32.2411Z" fill="#CED0D6"/>
<path d="M20.3504 38.9935C20.2189 39.0627 20.1365 39.199 20.1365 39.3476V41.6101C20.1365 41.7606 20.2964 41.8572 20.4296 41.7872L37.8812 32.6145C38.0127 32.5454 38.0951 32.409 38.0951 32.2604V29.9979C38.0951 29.8474 37.9352 29.7508 37.802 29.8208L20.3504 38.9935Z" fill="#CED0D6"/>
<path d="M20.3457 45.7455C20.2168 45.8155 20.1365 45.9504 20.1365 46.097V48.3581C20.1365 48.5098 20.2987 48.6062 20.4319 48.5339L38.1335 38.9241C38.2624 38.8541 38.3427 38.7192 38.3427 38.5725V36.3114C38.3427 36.1598 38.1805 36.0633 38.0472 36.1357L20.3457 45.7455Z" fill="#CED0D6"/>
<path d="M40.582 42.9737L37.7935 43.7655V54.5627C37.7935 55.0809 38.118 55.4855 38.541 55.6482L40.2133 56.4916L40.582 53.0354V42.9737Z" fill="#0C1231"/>
<path d="M39.2112 44.5004L42.3841 42.6082V53.8012C42.3841 54.8239 41.8461 55.7713 40.9676 56.2952C40.1934 56.7569 39.2112 56.199 39.2112 55.2976V44.5004Z" fill="#CC68EF"/>
<path fill-rule="evenodd" clip-rule="evenodd" d="M35.8195 43.9518C35.4965 43.791 35.1937 43.6403 34.9365 43.5171C31.9412 42.0819 30.6814 36.3468 33.1453 30.9457C35.6093 25.5446 41.2 22.9138 44.0855 24.0164C50.4137 26.4345 50.7252 32.2978 48.2612 37.6989C46.0809 42.4783 41.1899 46.2214 38.2178 45.0718C37.5528 44.8146 36.6234 44.352 35.8195 43.9518ZM36.9504 42.6664C39.5822 43.867 43.399 41.1507 45.4753 36.5992C47.5517 32.0478 47.1014 27.3848 44.4696 26.1842C41.8378 24.9835 38.0211 27.6999 35.9447 32.2513C33.8683 36.8028 34.3186 41.4658 36.9504 42.6664Z" fill="#0C1231"/>
<path fill-rule="evenodd" clip-rule="evenodd" d="M37.7801 44.8862C41.3887 46.5324 46.3114 43.4886 48.7753 38.0877C51.2392 32.6867 50.3113 26.9738 46.7027 25.3276C43.0942 23.6814 38.1715 26.7252 35.7076 32.1262C33.2436 37.5271 34.1716 43.24 37.7801 44.8862ZM38.4814 43.3481C41.0612 44.525 44.8358 41.7894 46.9121 37.238C48.9885 32.6865 48.5804 28.0428 46.0006 26.8659C43.4209 25.689 39.6463 28.4246 37.57 32.9761C35.4936 37.5275 35.9017 42.1713 38.4814 43.3481Z" fill="#CC68EF"/>
</svg>
