<svg width="64" height="64" viewBox="0 0 64 64" fill="none" xmlns="http://www.w3.org/2000/svg">
<path d="M21.2406 54.5064C21.2406 54.7586 21.4346 55.0301 21.8031 55.2434L25.0613 57.241C25.7401 57.6289 26.7486 57.6677 27.3305 57.338L43.4284 48.8929L44.8248 48.0783C45.0963 47.9232 45.2126 47.7292 45.2126 47.5159C45.2126 47.2638 45.0187 46.9922 44.6502 46.7789L41.392 44.7813C40.7326 44.3934 39.7047 44.3546 39.1229 44.6843L21.6285 53.9246C21.357 54.0798 21.2406 54.2931 21.2406 54.5064Z" fill="#E7E8EB"/>
<path d="M18.7481 23.1499C13.2903 32.2332 13.7857 42.5528 19.8545 46.1993L24.116 48.7091L44.2776 16.07L39.619 13.3057C33.2917 9.78663 24.2059 14.0665 18.7481 23.1499Z" fill="#DB93F4" stroke="#0C1231" stroke-width="0.8" stroke-linecap="round" stroke-linejoin="round"/>
<ellipse cx="34.6156" cy="32.6619" rx="12.8197" ry="19.1874" transform="rotate(31 34.6156 32.6619)" fill="white" stroke="#0C1231" stroke-width="0.8" stroke-linecap="round" stroke-linejoin="round"/>
<path d="M38.7127 25.4003C38.7127 27.7357 37.2557 30.5467 35.4585 31.6789C33.6612 32.8111 32.2042 31.8357 32.2042 29.5004C32.2042 27.165 33.6612 24.354 35.4585 23.2218C37.2557 22.0896 38.7127 23.065 38.7127 25.4003Z" fill="#0C1231"/>
<path fill-rule="evenodd" clip-rule="evenodd" d="M40.6913 37.8065C40.6913 33.4463 37.9712 31.6253 34.6156 33.7392C31.2601 35.853 28.5399 41.1012 28.5399 45.4614L40.6913 37.8065Z" fill="#0C1231"/>
<path d="M53.0497 17.6054C53.0497 22.0612 49.8905 27.4244 45.9934 29.5846C42.0963 31.7448 38.9371 29.8839 38.9371 25.4281C38.9371 20.9724 42.0963 15.6091 45.9934 13.449C49.8905 11.2888 53.0497 13.1497 53.0497 17.6054Z" fill="white" stroke="#0C1231" stroke-width="0.8" stroke-linecap="round" stroke-linejoin="round"/>
<path d="M48.0258 17.2012C48.0258 18.5001 47.2155 20.0635 46.2159 20.6932C45.2163 21.3229 44.406 20.7804 44.406 19.4816C44.406 18.1827 45.2163 16.6193 46.2159 15.9896C47.2155 15.3599 48.0258 15.9023 48.0258 17.2012Z" fill="#0C1231"/>
<path fill-rule="evenodd" clip-rule="evenodd" d="M49.1263 24.1012C49.1263 21.6762 47.6134 20.6634 45.7472 21.839C43.8809 23.0147 42.368 25.9336 42.368 28.3586L49.1263 24.1012Z" fill="#0C1231"/>
<path d="M31.4388 41.5499C31.4388 46.0057 28.2796 51.3689 24.3826 53.5291C20.4855 55.6893 17.3263 53.8284 17.3263 49.3726C17.3263 44.9169 20.4855 39.5537 24.3826 37.3935C28.2796 35.2333 31.4388 37.0942 31.4388 41.5499Z" fill="white" stroke="#0C1231" stroke-width="0.8" stroke-linecap="round" stroke-linejoin="round"/>
<path d="M26.3579 41.2288C26.3579 42.5277 25.5475 44.0911 24.548 44.7208C23.5484 45.3505 22.738 44.808 22.738 43.5091C22.738 42.2103 23.5484 40.6469 24.548 40.0172C25.5475 39.3875 26.3579 39.9299 26.3579 41.2288Z" fill="#0C1231"/>
<path fill-rule="evenodd" clip-rule="evenodd" d="M27.4584 48.1288C27.4584 45.7038 25.9455 44.691 24.0792 45.8666C22.213 47.0423 20.7001 49.9612 20.7001 52.3862L27.4584 48.1288Z" fill="#0C1231"/>
</svg>
