<svg width="64" height="64" viewBox="0 0 64 64" fill="none" xmlns="http://www.w3.org/2000/svg">
<g style="mix-blend-mode:multiply">
<path d="M44.9758 53.2254C44.9758 53.7659 44.8747 54.309 44.6723 54.8388C44.1585 56.1885 42.9951 57.4744 41.1741 58.5207C36.1078 61.4466 27.892 61.4466 22.8257 58.5207C21.0073 57.4718 19.8412 56.1885 19.3274 54.8388C19.1251 54.309 19.0239 53.7659 19.0239 53.2254C19.0239 51.3086 20.2885 49.3944 22.8257 47.9302C27.892 45.0043 36.1078 45.0043 41.1741 47.9302C43.7086 49.3944 44.9758 51.3086 44.9758 53.2254Z" fill="#E7E8EB"/>
</g>
<circle cx="32" cy="48.5445" r="4.68094" fill="#B7B8C2" stroke="#0C1231" stroke-width="0.8" stroke-miterlimit="10" stroke-linecap="round"/>
<path d="M41.4142 37.125V44.4679C41.4142 45.8586 40.4948 47.2474 38.656 48.3097C34.9804 50.4324 29.0198 50.4324 25.3441 48.3097C23.5053 47.2474 22.5859 45.8586 22.5859 44.4679V37.125C22.5859 37.5171 22.6593 37.9112 22.8061 38.2955C23.177 39.2748 24.023 40.2077 25.3441 40.9668C29.0198 43.0895 34.9804 43.0895 38.656 40.9668C39.9752 40.2058 40.8213 39.2748 41.194 38.2955C41.3408 37.9112 41.4142 37.5171 41.4142 37.125Z" fill="#DB93F4" stroke="#0C1231" stroke-width="0.8" stroke-linecap="round" stroke-linejoin="round"/>
<path d="M41.4142 37.125C41.4142 37.5171 41.3408 37.9111 41.194 38.2955C40.8213 39.2748 39.9772 40.2077 38.656 40.9668C34.9804 43.0895 29.0198 43.0895 25.3441 40.9668C24.0249 40.2057 23.1789 39.2748 22.8061 38.2955C22.6593 37.9111 22.5859 37.5171 22.5859 37.125C22.5859 35.7343 23.5034 34.3456 25.3441 33.2832C29.0198 31.1605 34.9804 31.1605 38.656 33.2832C40.4948 34.3456 41.4142 35.7343 41.4142 37.125Z" fill="#0C1231" stroke="#0C1231" stroke-width="0.8" stroke-miterlimit="10" stroke-linecap="round"/>
<path d="M23.73 36.4889C23.7599 36.6132 23.7982 36.737 23.845 36.8596C24.1732 37.7216 24.9179 38.5411 26.0791 39.211C29.3147 41.0796 34.5616 41.0796 37.7972 39.211C38.9602 38.5428 39.7032 37.7216 40.0313 36.8596C40.0781 36.737 40.1165 36.6132 40.1463 36.4889H40.1723C40.9319 33.5063 41.6371 33.2194 44.5262 29.6587L44.4291 29.6587C46.7318 26.8719 48.1153 23.2977 48.1153 19.4003C48.1153 10.5 40.9002 3.28494 31.9999 3.28494C23.0996 3.28494 15.8845 10.5 15.8845 19.4003C15.8845 23.6069 17.4963 27.437 20.1359 30.3069C22.5154 33.5787 22.8939 33.5832 23.6523 35.9064C23.6574 36.0892 23.6806 36.2721 23.7218 36.4538C23.7232 36.4655 23.7246 36.4772 23.726 36.4889H23.73Z" fill="white" stroke="#0C1231" stroke-width="0.8" stroke-linecap="round" stroke-linejoin="round"/>
<path d="M23.2258 27.538L27.7108 21.5888L33.1029 25.2652L38.1774 17.6862" stroke="#0C1231" stroke-width="2" stroke-miterlimit="10" stroke-linecap="round" stroke-linejoin="round"/>
<path d="M39.6626 17.7723L37.6021 16.4891L40.0962 15.0282L39.6626 17.7723Z" fill="#0C1231" stroke="#0C1231" stroke-width="2" stroke-miterlimit="10" stroke-linecap="round"/>
</svg>
