<svg width="64" height="64" viewBox="0 0 64 64" fill="none" xmlns="http://www.w3.org/2000/svg">
<path d="M40.6768 57.0928C40.6768 57.6132 40.2932 58.1574 39.5431 58.5826L36.0833 60.7051C34.7111 61.4874 32.6407 61.5656 31.4552 60.8955L16.7182 52.5837L13.8597 50.9579C13.324 50.6517 13.0579 50.2436 13.0579 49.815C13.0579 49.298 13.4415 48.7538 14.1916 48.3252L17.6549 46.2027C19.0236 45.4272 21.0975 45.3422 22.283 46.0157L39.8749 55.9534C40.4107 56.2595 40.6768 56.6642 40.6768 57.0928Z" fill="#E7E8EB"/>
<path d="M50.0081 51.2607C50.0081 51.7812 49.6245 52.3254 48.8744 52.7505L45.4146 54.873C44.0424 55.6553 41.972 55.7335 40.7865 55.0635L26.0495 46.7516L23.191 45.1258C22.6553 44.8197 22.3892 44.4115 22.3892 43.9829C22.3892 43.4659 22.7728 42.9217 23.5229 42.4931L26.9862 40.3707C28.3549 39.5952 30.4288 39.5101 31.6143 40.1836L49.2062 50.1213C49.742 50.4274 50.0081 50.8322 50.0081 51.2607Z" fill="#E7E8EB"/>
<path d="M43.4377 17.5848L25.2479 6.85087L28.1573 5.31787L43.3626 14.4193C43.6934 14.6173 44.1006 14.639 44.4506 14.4774L45.1235 14.1667C45.5482 13.9706 45.5808 13.3795 45.1802 13.1378L30.2458 4.1288L32.7525 2.65045L48.6478 12.0304C50.0697 12.8694 51.1325 14.5187 50.2779 15.9314C48.9101 18.1924 45.7168 18.7378 43.4377 17.5848Z" fill="#DB93F4" stroke="#0C1231" stroke-width="0.8" stroke-linecap="round" stroke-linejoin="round"/>
<path d="M45.1799 13.1378L30.2455 4.1288V6.56799L43.3623 14.4193C43.6931 14.6173 44.1003 14.6391 44.4503 14.4774L45.1232 14.1667C45.5479 13.9706 45.5805 13.3795 45.1799 13.1378Z" fill="#B7B8C2" stroke="#0C1231" stroke-width="0.8" stroke-linecap="round" stroke-linejoin="round"/>
<path d="M43.4376 17.5848L25.2478 6.85088V38.897L43.4376 49.8868V17.5848Z" fill="white" stroke="#0C1231" stroke-width="0.8" stroke-linecap="round" stroke-linejoin="round"/>
<path d="M39.202 41.4292V32.8338L29.4829 27.0985V35.4993L39.202 41.4292Z" fill="white" stroke="#0C1231" stroke-width="0.8" stroke-linecap="round" stroke-linejoin="round"/>
<path d="M50.5631 14.6646C50.5631 18.8066 44.6241 18.39 43.4377 17.5857V49.9048C46.6163 51.5577 50.5631 49.9048 50.5631 46.1947V14.6646Z" fill="white" stroke="#0C1231" stroke-width="0.8" stroke-linecap="round" stroke-linejoin="round"/>
<path d="M32.7901 23.5919L14.6003 12.8579L17.5097 11.3249L32.715 20.4263C33.0458 20.6243 33.453 20.6461 33.8031 20.4845L34.4759 20.1738C34.9006 19.9776 34.9332 19.3865 34.5327 19.1449L19.5982 10.1358L22.1049 8.6575L38.0002 18.0374C39.4221 18.8765 40.4849 20.5258 39.6304 21.9384C38.2626 24.1995 35.0692 24.7448 32.7901 23.5919Z" fill="#DB93F4" stroke="#0C1231" stroke-width="0.8" stroke-linecap="round" stroke-linejoin="round"/>
<path d="M34.5324 19.1449L19.5979 10.1358V12.575L32.7147 20.4263C33.0455 20.6243 33.4527 20.6461 33.8028 20.4845L34.4756 20.1737C34.9003 19.9776 34.9329 19.3865 34.5324 19.1449Z" fill="#B7B8C2" stroke="#0C1231" stroke-width="0.8" stroke-linecap="round" stroke-linejoin="round"/>
<path d="M32.79 23.5919L14.6002 12.8579V44.904L32.79 55.8938V23.5919Z" fill="white" stroke="#0C1231" stroke-width="0.8" stroke-linecap="round" stroke-linejoin="round"/>
<path d="M28.5543 47.4362V38.8408L18.8352 33.1055V41.5063L28.5543 47.4362Z" fill="#D1D1E2"/>
<path d="M39.9154 20.6716C39.9154 24.8136 33.9764 24.397 32.79 23.5928V55.9119C35.9686 57.5648 39.9154 55.9119 39.9154 52.2018V20.6716Z" fill="white" stroke="#0C1231" stroke-width="0.8" stroke-linecap="round" stroke-linejoin="round"/>
</svg>
