<svg width="64" height="64" viewBox="0 0 64 64" fill="none" xmlns="http://www.w3.org/2000/svg">
<path d="M56.5 52.9402L53.2995 54.7873L38.8055 63.13C38.0279 63.5781 36.8477 63.6249 36.1756 63.2391L9.44237 47.8473L7.45721 46.7056C7.1485 46.5302 7 46.2925 7 46.047C7 45.747 7.21884 45.4353 7.64479 45.1898L25.3432 35L56.5 52.9363V52.9402Z" fill="#E7E8EB"/>
<path d="M56.5 41.5697L53.2995 43.4815L38.8055 52.117C38.0279 52.5809 36.8477 52.6293 36.1756 52.23L9.44237 36.2981L7.45721 35.1163C7.1485 34.9348 7 34.6888 7 34.4347C7 34.1241 7.21884 33.8014 7.64479 33.5473L25.3432 23L56.5 41.5657V41.5697Z" fill="#E7E8EB" stroke="#0C1231" stroke-width="0.8" stroke-linecap="round" stroke-linejoin="round"/>
<path d="M56.5 20.802V41.5L25.5 23.2834V2.58535C25.5 1.67115 26.0443 1.25165 26.7131 1.65136L55.283 18.4393C55.9518 18.8311 56.5 19.8878 56.5 20.798V20.802Z" fill="white" stroke="#0C1231" stroke-width="0.8" stroke-linecap="round" stroke-linejoin="round"/>
<path d="M39.5942 21.9217L48.1544 23.2574C48.3263 23.2842 48.3263 22.9974 48.1544 22.8094L39.5942 13.4471C39.5441 13.3923 39.4882 13.3582 39.4386 13.3521L31.4456 12.3708C31.2799 12.3505 31.2799 12.6275 31.4456 12.8144L39.4386 21.8222C39.4882 21.8781 39.5441 21.9138 39.5942 21.9217Z" fill="#0C1231"/>
<path d="M46.4415 22.0606L47.4297 22.6496C48.0038 22.9918 48.4767 23.8316 48.4767 24.5087L48.4768 30.5992" stroke="#0C1231" stroke-width="0.8" stroke-linecap="round" stroke-linejoin="round"/>
<path d="M49.3604 30.8601C49.3604 31.0664 49.3069 31.2268 49.2178 31.3337C49.1872 31.3694 49.1516 31.3999 49.1134 31.4254L49.0904 31.4381C48.9326 31.5247 48.7136 31.5094 48.4768 31.3694C47.9879 31.0867 47.5933 30.4018 47.5933 29.8391C47.5933 29.559 47.69 29.3629 47.8479 29.2687C47.8912 29.2433 47.9421 29.2254 47.993 29.2153C48.1305 29.1898 48.2986 29.2254 48.4768 29.3298C48.9631 29.6099 49.3604 30.2974 49.3604 30.8601Z" fill="#0C1231"/>
<path d="M44.0832 23.5396L39.3221 22.8468L35.1319 18.1247L35.1318 23.7106C35.1318 24.5443 35.5626 25.3187 36.2708 25.7585L42.2422 29.466C43.0451 29.9645 44.0832 29.3871 44.0832 28.4421V23.5396Z" fill="#0C1231"/>
<path d="M29.581 43.2307L22.4382 38.8362C21.7888 38.4364 21.8714 37.7406 22.6183 37.2808L24.8929 35.8813C25.6399 35.4215 26.7734 35.3695 27.419 35.7693L34.5618 40.1638C35.2112 40.5636 35.1286 41.2594 34.3817 41.7192L32.1071 43.1187C31.3601 43.5785 30.2266 43.6305 29.581 43.2307Z" fill="white" stroke="#0C1231" stroke-width="0.8" stroke-linecap="round" stroke-linejoin="round"/>
<path d="M56.5 41.5108V45.26L38.8016 55.6237C38.024 56.0795 36.8438 56.127 36.1717 55.7347L7.45721 38.9229C7.1485 38.7446 7 38.5028 7 38.2492V34.5C7 34.7497 7.1524 34.9914 7.45721 35.1698L9.44237 36.331L36.1717 51.9815C36.8438 52.3739 38.024 52.3263 38.8016 51.8706L53.2956 43.3854L56.4961 41.5108H56.5Z" fill="white" stroke="#0C1231" stroke-width="0.8" stroke-linecap="round" stroke-linejoin="round"/>
<path d="M29.036 9.94646C31.2038 13.5592 31.0044 17.6621 28.5906 19.1105L26.756 20.2123L18.7476 7.23048L20.7402 6.02758C23.2567 4.62991 26.8681 6.33371 29.036 9.94646Z" fill="#DB93F4" stroke="#0C1231" stroke-width="0.8" stroke-linecap="round" stroke-linejoin="round"/>
<ellipse cx="5.09703" cy="7.62878" rx="5.09703" ry="7.62878" transform="matrix(-0.857472 0.514531 0.514531 0.857472 23.0303 4.66553)" fill="white" stroke="#0C1231" stroke-width="0.8" stroke-linecap="round" stroke-linejoin="round"/>
<path d="M20.236 16.4293V10.4651C20.236 10.2797 20.4663 10.1941 20.5874 10.3344L25.2543 15.7419C25.3589 15.8632 25.2856 16.0522 25.1265 16.0712L20.4597 16.6279C20.3406 16.6421 20.236 16.5492 20.236 16.4293Z" fill="#0C1231"/>
</svg>
